<svg xmlns="http://www.w3.org/2000/svg" width="231px" height="23.65px" viewBox="0 0 264 27"><path d="M67.6428 2.523C69.9778 2.523 72.3118 3.015 74.0906 4.217V8.234C72.3952 6.759 70.1446 5.994 67.6713 5.994C63.8637 5.994 60.2778 8.344 60.2778 13.18C60.2778 18.017 63.8637 20.368 67.6713 20.368C70.1446 20.368 72.3952 19.602 74.0906 18.127V22.144C72.3118 23.346 69.9778 23.838 67.6428 23.838C61.668 23.838 56.1102 20.203 56.1102 13.18C56.1102 6.157 61.668 2.523 67.6428 2.523ZM74.8543 23.483L84.7191 2.058L94.6144 23.483H90.5566L88.6101 19.083H80.6898L78.7443 23.483H74.8543ZM87.1934 15.886L84.6357 10.175L82.1075 15.886H87.1934ZM114.636 24.303L100.324 8.726V23.483H96.4602V2.988H100.018L110.772 14.82V2.988H114.635L114.636 24.303ZM136.992 24.303L122.68 8.726V23.483H118.817V2.988H122.374L133.13 14.82V2.988H136.992V24.303ZM145.253 14.602V20.067H153.48V23.483H141.391V2.988H153.48V6.403H145.253V11.186H153.201V14.602H145.253ZM164.886 11.73C167.805 12.986 170.167 14.353 170.167 17.796C170.167 21.922 166.86 23.944 162.997 23.944C158.857 23.944 155.827 21.649 155.632 17.523H159.745C159.94 19.791 161.274 20.747 163.08 20.747C164.831 20.747 166.137 19.9 166.137 18.206C166.137 16.484 164.72 15.774 162.469 14.817L160.774 14.107C158.411 13.123 156.105 11.347 156.105 8.259C156.105 4.706 159.162 2.629 162.913 2.629C166.804 2.629 169.25 5.007 169.666 8.395H165.553C165.276 6.783 164.358 5.881 162.748 5.881C161.247 5.881 160.191 6.647 160.191 8.013C160.191 9.488 161.191 10.171 163.165 10.991L164.886 11.73ZM181.919 2.988H185.782V20.067H194.009V23.483H181.919V2.988ZM196.408 23.483V2.988H200.271V23.483H196.408ZM214.37 2.63C220.79 2.63 225.348 7.302 225.348 13.287C225.348 19.271 220.79 23.944 214.342 23.944C207.923 23.944 203.393 19.271 203.393 13.287C203.393 7.302 207.923 2.63 214.37 2.63ZM207.561 13.287C207.561 17.468 210.313 20.447 214.342 20.447C218.344 20.447 221.18 17.468 221.18 13.287C221.18 9.105 218.344 6.127 214.37 6.127C210.313 6.127 207.561 9.106 207.561 13.287ZM246.482 24.409L232.169 8.832V23.59H228.307V3.094H231.864L242.619 14.927V3.094H246.481L246.482 24.409ZM258.72 11.73C261.638 12.986 264 14.353 264 17.796C264 21.922 260.693 23.944 256.83 23.944C252.689 23.944 249.66 21.649 249.465 17.523H253.579C253.773 19.791 255.107 20.747 256.914 20.747C258.664 20.747 259.971 19.9 259.971 18.206C259.971 16.484 258.553 15.774 256.302 14.817L254.606 14.107C252.245 13.123 249.938 11.347 249.938 8.259C249.938 4.706 252.995 2.629 256.747 2.629C260.638 2.629 263.083 5.007 263.5 8.395H259.387C259.109 6.783 258.192 5.882 256.58 5.882C255.079 5.882 254.023 6.647 254.023 8.013C254.023 9.488 255.023 10.172 256.997 10.991L258.72 11.73ZM40.8503 2.956H40.4364V24.268H40.8503V2.956ZM5.59229 27H5.58924C5.13736 26.9939 4.68644 26.9571 4.2397 26.89C4.08715 26.87 3.94477 26.85 3.85629 26.846C3.6773 26.836 3.48611 26.832 3.30508 26.832C2.96948 26.822 2.63286 26.852 2.30335 26.919C2.18428 26.9532 2.06124 26.9724 1.93723 26.976C1.82526 26.9776 1.71503 26.9485 1.61892 26.892C1.37758 26.7667 1.12863 26.6562 0.873465 26.561C0.681846 26.4776 0.476531 26.4289 0.267339 26.417C0.22666 26.338 -0.117082 25.635 0.0415678 25.155C0.164623 24.755 0.429041 24.413 0.787021 24.188C0.994486 24.085 1.06466 24.055 1.07686 24.05C1.07772 24.0422 1.0769 24.0344 1.07445 24.027C1.07199 24.0196 1.06796 24.0128 1.06262 24.007C1.04992 23.9957 1.03492 23.9872 1.01861 23.982C1.00231 23.9768 0.985071 23.9751 0.968045 23.977C0.889375 23.9883 0.815438 24.0208 0.754477 24.071L0.752443 24.073C0.718932 24.0989 0.681073 24.1189 0.640574 24.132H0.630404C0.623287 24.1323 0.616224 24.1306 0.610082 24.1271C0.60394 24.1235 0.598986 24.1183 0.595827 24.112C0.589967 24.0777 0.592241 24.0425 0.602472 24.0092C0.612703 23.9759 0.630615 23.9454 0.654812 23.92C0.827144 23.725 1.03944 23.5679 1.2778 23.4592C1.51615 23.3504 1.77518 23.2924 2.03792 23.289L2.11012 23.29C2.45081 23.313 2.78845 23.366 3.11898 23.447C3.38034 23.515 3.64781 23.556 3.91833 23.569C3.99155 23.569 4.06478 23.563 4.13698 23.551C4.96888 23.407 6.24825 22.637 7.16964 21.964C7.83679 21.476 8.50902 20.889 9.21989 20.268C10.0274 19.563 10.8623 18.833 11.7959 18.152C13.5807 16.857 14.8937 16.1 15.213 15.937L15.4612 15.813C15.5405 15.78 15.6157 15.739 15.6849 15.689C15.7123 15.666 15.7225 15.652 15.7185 15.643C15.7164 15.636 15.7042 15.633 15.6829 15.633C15.5982 15.6398 15.5143 15.6549 15.4327 15.678C15.1459 15.748 13.8289 16.156 13.2756 16.541C12.9858 16.733 12.7265 16.965 12.5037 17.23V17.227C12.5749 16.853 12.7499 16.505 13.0102 16.223C13.4455 15.762 13.4933 15.713 13.5767 15.653C13.6092 15.631 13.6255 15.61 13.6204 15.597C13.6184 15.59 13.6102 15.586 13.599 15.586C13.557 15.5911 13.5167 15.6055 13.4811 15.628C13.3428 15.709 12.6543 16.391 12.3949 16.765L12.3909 16.771C12.1417 17.134 12.0044 17.334 11.1908 17.465C10.1881 17.625 9.59109 17.816 9.31549 18.069C9.12639 18.2362 8.97113 18.4371 8.85784 18.661C8.84869 18.671 8.80394 18.724 8.76631 18.724C8.75969 18.7239 8.75326 18.7218 8.74783 18.718C8.7424 18.7143 8.73821 18.7091 8.7358 18.703C8.72592 18.6782 8.72175 18.6516 8.7236 18.625C8.7236 18.615 8.73682 17.637 9.80873 16.848C10.3253 16.4638 10.8464 16.0854 11.3718 15.713C11.4634 15.649 11.5061 15.603 11.4979 15.579C11.4929 15.565 11.4705 15.557 11.4308 15.557C11.4186 15.557 11.4074 15.557 11.3973 15.559C11.2427 15.569 10.1748 15.776 9.68974 16.15C9.46505 16.314 9.25106 16.4916 9.04904 16.682C9.03277 16.6861 9.01557 16.6847 9.00022 16.678C8.99114 16.6738 8.98314 16.6677 8.97683 16.66C8.96237 16.6326 8.95374 16.6026 8.95147 16.5718C8.94919 16.5411 8.95333 16.5102 8.96361 16.481C8.98395 16.389 9.17209 15.569 9.88093 15.121C10.2887 14.867 10.725 14.661 11.1796 14.504L11.2061 13.891L11.1979 13.887C10.8786 13.723 9.81483 13.173 9.55448 12.967C9.26972 12.743 8.94734 12.488 9.19447 11.105C9.44363 9.678 9.45583 9.447 9.4477 9.342C9.42763 9.29062 9.39835 9.24321 9.36125 9.202C9.2087 8.995 8.92293 8.612 9.0226 8.024C9.08768 7.6 9.23616 7.191 9.45583 6.82V6.834C9.44566 7.112 9.42227 7.802 9.43244 8.204C9.4477 8.69 9.45685 8.984 9.60228 9.152C9.63692 9.19344 9.67576 9.23131 9.71822 9.265C9.76195 9.3 9.78229 9.315 9.82093 9.427C9.86161 9.547 9.72635 10.201 9.60533 10.778L9.60431 10.786C9.5494 11.05 9.49753 11.299 9.47109 11.461C9.45685 11.547 9.43956 11.632 9.42329 11.715L9.41922 11.735C9.3643 12.005 9.31651 12.24 9.40193 12.343C9.42078 12.3634 9.44417 12.3793 9.47028 12.3893C9.49639 12.3994 9.52451 12.4034 9.55245 12.401C9.5691 12.4009 9.58574 12.3999 9.60228 12.398C9.88704 12.363 9.91246 12.304 9.94297 12.23C9.95553 12.1958 9.9745 12.1643 9.9989 12.137C10.0458 12.0915 10.1017 12.0558 10.163 12.0321C10.2244 12.0084 10.29 11.9971 10.3559 11.999C10.4016 11.999 10.4474 12.005 10.4921 12.017C10.5399 12.031 10.5816 12.047 10.6223 12.063C10.6864 12.093 10.7566 12.111 10.8278 12.114C10.8611 12.114 10.8944 12.1093 10.9264 12.1C10.9709 12.0885 11.0167 12.0831 11.0627 12.084C11.1786 12.084 11.3169 12.114 11.3576 12.197C11.3851 12.255 11.3627 12.329 11.2884 12.417C11.1861 12.5327 11.0546 12.62 10.9071 12.67C10.7545 12.733 10.6549 12.774 10.721 12.94C10.8257 13.197 11.8925 13.878 12.5241 13.878C12.6226 13.8819 12.7203 13.8583 12.8058 13.81C12.996 13.693 13.1658 13.6 13.2889 13.531C13.6184 13.35 13.7841 13.259 13.8024 13.077C13.8008 13.0211 13.7879 12.9661 13.7646 12.9151C13.7412 12.8641 13.7077 12.8182 13.6662 12.78C13.6057 12.7121 13.5322 12.6567 13.4498 12.6171C13.3674 12.5774 13.2777 12.5543 13.1861 12.549C13.1164 12.5484 13.0477 12.5656 12.9868 12.599C12.6878 12.759 12.2037 12.931 11.8478 12.931C11.7932 12.9316 11.7386 12.9265 11.6851 12.916C11.4278 12.866 11.3057 12.766 11.3108 12.723C11.3108 12.71 11.324 12.703 11.3454 12.703C11.4945 12.7521 11.6556 12.7533 11.8054 12.7066C11.9553 12.6599 12.0862 12.5676 12.1793 12.443C12.3075 12.294 12.8088 11.997 13.3895 11.652L13.3916 11.65C14.3567 11.077 15.5578 10.364 15.873 9.864C16.1466 9.428 16.0398 8.646 15.9452 7.956C15.8649 7.369 15.7957 6.863 15.9737 6.689C16.2524 6.414 17.8399 6.013 18.8894 5.749L18.8945 5.747C19.2708 5.653 19.5942 5.571 19.7386 5.524C20.2502 5.364 20.6997 5.054 21.0271 4.634C21.3322 4.228 21.437 3.777 21.3221 3.366C21.1807 2.868 20.4403 2.046 19.7681 1.642C19.763 1.64 19.762 1.636 19.762 1.636C19.762 1.636 19.7671 1.631 19.7884 1.631C19.9654 1.631 20.8542 1.815 21.6912 2.398C22.1662 2.724 22.5628 3.148 22.8536 3.64C23.2116 4.272 23.4008 4.984 23.4028 5.708C23.4171 6.432 23.9103 7.112 24.433 7.831C25.028 8.651 25.6432 9.498 25.5039 10.428C25.3056 11.744 23.9347 12.748 23.4699 12.998C23.8016 12.9888 24.1336 13.0014 24.4635 13.036C25.0005 13.094 25.5161 13.422 25.5731 13.459C25.5354 13.464 21.7675 13.917 20.4912 14.527L20.3346 14.601C18.2701 15.586 15.7001 16.811 12.8109 19C12.3654 19.338 11.9607 19.65 11.5691 19.952L11.5661 19.954L11.4573 20.037L11.4563 20.038C9.50058 21.546 8.08798 22.636 5.49466 23.988C4.66378 24.422 3.87765 24.555 3.35695 24.642C3.23361 24.6613 3.11084 24.6839 2.9888 24.71C2.53624 24.818 2.04097 25.065 1.95554 25.372C1.9169 25.524 1.90469 25.682 1.91995 25.839C1.92081 25.9492 1.95871 26.0561 2.02775 26.143C2.05419 26.173 2.0908 26.191 2.13046 26.196C2.17826 26.196 2.21792 26.153 2.26776 26.049C2.29129 25.9768 2.30497 25.9018 2.30844 25.826C2.33284 25.598 2.36539 25.286 2.59319 25.138C2.8149 24.992 3.01321 24.973 3.37221 24.94H3.37831C3.54815 24.923 3.75968 24.903 4.02715 24.865C4.47767 24.803 4.9221 24.703 5.35432 24.566H5.35737C5.42449 24.544 5.47331 24.529 5.50687 24.521C5.53849 24.5133 5.57091 24.5093 5.60348 24.509C5.66043 24.509 5.69704 24.523 5.70518 24.549C5.71128 24.573 5.69501 24.615 5.58111 24.688C5.56077 24.7 5.54043 24.713 5.52009 24.728C5.14685 24.99 4.72582 25.178 4.27936 25.279L3.85934 25.359C3.50747 25.422 3.29491 25.46 3.17084 25.539C3.11982 25.5771 3.07746 25.6252 3.04646 25.6803C3.01546 25.7354 2.99651 25.7963 2.99084 25.859H2.99795C3.16372 25.843 3.31322 25.835 3.43323 25.835C3.50441 25.833 3.57357 25.838 3.64374 25.85C3.73324 25.871 3.82172 25.899 3.90816 25.933L3.91731 25.937C4.2511 26.0724 4.60615 26.1503 4.96684 26.167H4.97396C5.11634 26.18 5.27906 26.194 5.45195 26.194C6.04587 26.194 6.49233 26.028 6.85743 25.671L6.90726 25.622L6.90828 25.621C7.40457 25.133 8.91581 23.648 11.1227 22.779C11.7105 22.548 12.3736 22.395 13.0743 22.233C13.8909 22.044 14.735 21.85 15.5323 21.512C16.3687 21.1782 17.1038 20.6386 17.667 19.945C18.3683 19.0615 19.3288 18.4113 20.4184 18.0824C21.508 17.7535 22.6741 17.7617 23.7588 18.106C24.1849 18.248 24.4991 18.435 24.5581 18.581C24.2225 18.541 23.8849 18.521 23.5462 18.52C22.4438 18.52 21.5519 18.767 20.8176 19.276C20.1647 19.729 19.6979 20.34 19.2464 20.931C18.624 21.745 17.9802 22.588 16.8463 22.993C16.4954 23.114 16.0012 23.188 15.3757 23.281L15.3676 23.282C14.3882 23.428 13.1689 23.61 11.8081 24.073C10.2216 24.608 8.75716 25.446 7.5022 26.541C7.02726 26.845 6.38351 27 5.59229 27ZM1.72265 24.316C0.988384 24.316 0.682271 25.071 0.67922 25.078C0.661322 25.1387 0.657884 25.2027 0.669171 25.265C0.680458 25.3272 0.706167 25.3861 0.744307 25.437C0.760688 25.4665 0.783652 25.492 0.811479 25.5116C0.839306 25.5312 0.871274 25.5443 0.904991 25.55C0.926019 25.5484 0.946026 25.5404 0.962242 25.5272C0.978458 25.5139 0.990082 25.496 0.995503 25.476C1.1806 25.028 1.57315 24.728 1.80706 24.548C1.92503 24.458 2.00334 24.398 1.9952 24.365C1.99317 24.354 1.97995 24.345 1.95656 24.341C1.87968 24.3247 1.80129 24.3163 1.72265 24.316ZM17.8684 7.166V7.168C18.3311 8.321 18.2955 9.685 18.1857 10.626C18.1126 11.3178 17.9647 12 17.7443 12.661C17.6172 12.946 16.7436 14.59 16.7354 14.606C17.0897 14.32 17.4165 14.0027 17.7117 13.658C18.1857 13.11 18.804 12.238 19.0582 11.195C19.1437 10.842 19.1315 10.129 18.5904 8.737C18.3829 8.19921 18.1417 7.67455 17.8684 7.166ZM24.2174 9.663C24.1071 10.7433 23.6112 11.7506 22.8191 12.507L22.7143 12.612L22.7133 12.613C22.5278 12.8217 22.3102 13.0005 22.0685 13.143C22.4764 13.0715 22.8884 13.0247 23.3021 13.003C23.6194 12.531 23.8645 12.016 24.0303 11.473C24.1839 10.987 24.3405 10.278 24.2174 9.663ZM19.7254 6.507C19.8373 6.612 21.2448 8.642 21.3292 8.817C21.676 9.555 21.976 10.349 21.8194 11.157C21.6943 11.787 21.2977 12.399 20.6061 13.028C20.8776 12.896 21.3688 12.642 21.6088 12.42C21.7482 12.293 22.1346 11.79 22.3716 11.12C22.5791 10.536 22.7225 9.666 22.2353 8.84C22.1194 8.586 21.7899 8.049 20.8909 7.299C20.3335 6.834 19.8352 6.524 19.7254 6.507ZM16.8504 10.081C16.7944 10.081 16.5066 10.471 16.1415 10.965C15.5984 11.7 14.854 12.707 14.5113 12.904C14.5316 12.896 16.5829 12.122 16.827 11.46C17.0131 10.954 16.9215 10.233 16.8575 10.086L16.8554 10.082L16.8504 10.081ZM8.61682 14.964C8.58458 14.9573 8.55453 14.9429 8.52936 14.922C8.37681 14.815 7.57034 14.02 7.28863 13.194C7.11066 12.683 7.14422 12.044 7.17066 11.53V11.524C7.18693 11.198 7.20117 10.917 7.1554 10.756C7.09033 10.577 7.01145 10.4032 6.91946 10.236C6.64081 9.685 6.25944 8.93 6.30317 8.256C6.36012 7.436 6.92455 6.575 7.2988 6.005L7.31406 5.981C7.47615 5.72307 7.644 5.46868 7.81746 5.218L7.82763 5.202L7.82967 5.2C8.1785 4.685 8.5741 4.102 8.68394 3.779C8.81615 3.377 9.14158 2.475 9.3104 2.251L9.30939 2.252C9.28091 2.278 9.10802 2.448 8.49885 3.176C8.37986 3.317 8.26494 3.451 8.15307 3.58L8.13985 3.595C7.6039 4.215 7.18083 4.705 7.03133 5.312C6.84422 6.05799 6.42678 6.7287 5.83637 7.232C5.37262 7.628 5.51805 8.139 5.68586 8.732C5.72654 8.87 5.76416 9.006 5.79772 9.146C5.98383 9.92 6.11503 10.203 6.55233 10.986C6.77912 11.396 6.87472 11.863 6.82692 12.327C6.81717 12.3905 6.81959 12.4553 6.83404 12.518C6.81658 12.494 6.80061 12.4689 6.78624 12.443C6.68454 12.278 6.44555 11.89 6.3052 11.782C6.27571 11.76 5.59636 11.232 5.12346 9.789C5.06956 9.622 5.01159 9.458 4.96684 9.326C4.62005 8.326 4.34648 7.536 5.06549 6.464C5.73671 5.461 5.90959 4.524 6.01434 3.964C6.03773 3.842 6.05706 3.738 6.0774 3.66C6.09163 3.601 6.10282 3.541 6.11706 3.469C6.19232 3.071 6.2869 2.576 7.14829 2.142C7.73258 1.85938 8.34501 1.63686 8.97581 1.478C9.21379 1.411 9.43854 1.348 9.66432 1.271C10.242 1.078 10.8369 0.65 11.2305 0.366L11.2447 0.356C11.3349 0.289785 11.4264 0.225438 11.5193 0.163C11.6719 0.063 11.9658 0 12.2881 0C12.8953 0 13.4099 0.207 13.6652 0.553C13.9713 0.97 14.9872 1.233 15.8822 1.464L15.8873 1.465C16.6276 1.656 17.3263 1.838 17.5094 2.076C18.0036 2.719 17.5999 3.412 17.4026 3.625C16.9327 4.125 14.6954 5.985 14.4981 6.005H14.4859C14.4722 6.0055 14.4587 6.00254 14.4466 5.99641C14.4345 5.99028 14.4242 5.98118 14.4167 5.97C14.376 5.911 14.376 5.775 14.4177 5.577C14.4965 5.23476 14.6185 4.90353 14.7808 4.591L14.7818 4.589C14.9384 4.274 15.0737 4.001 15.0005 3.644C14.915 3.211 14.6099 2.844 14.0119 2.454C13.3753 2.06 12.2536 1.753 11.4583 1.753C11.2731 1.74579 11.0882 1.77293 10.9132 1.833C10.4576 2.017 10.0742 2.343 9.82195 2.759C9.61448 3.099 9.48227 3.479 9.43244 3.872L9.42227 3.954C9.33786 4.604 9.22396 5.494 8.60868 6.531L8.54156 6.645C7.94154 7.647 7.58051 8.251 7.72797 8.86C7.81238 9.173 7.9151 9.481 8.03307 9.784V9.786C8.21409 10.275 8.39918 10.78 8.43274 11.14C8.49376 11.744 8.42461 12.226 8.28325 12.854C8.14087 13.502 8.06663 13.924 8.25579 14.317C8.43478 14.693 8.53037 14.795 8.58122 14.849L8.58732 14.855L8.59343 14.862C8.61885 14.894 8.64122 14.938 8.63207 14.956C8.63067 14.9585 8.62855 14.9606 8.62597 14.962C8.62319 14.9635 8.62 14.9642 8.61682 14.964ZM11.7858 11.208C11.7858 11.208 11.7807 11.208 11.7776 11.206C11.7749 11.2049 11.7725 11.2032 11.7705 11.201C11.7613 11.1841 11.7591 11.1644 11.7644 11.146C11.7725 11.098 11.8 11.002 11.8356 10.88V10.878C11.9139 10.634 11.9729 10.385 12.0105 10.132V10.125C12.0319 9.903 12.0512 9.692 11.9769 9.612C11.9666 9.60113 11.9539 9.59257 11.9399 9.58688C11.9259 9.58118 11.9108 9.5785 11.8956 9.579C11.8763 9.57917 11.8572 9.58186 11.8386 9.587C11.7369 9.612 11.6312 9.625 11.5254 9.626C11.4304 9.63295 11.3354 9.6117 11.2529 9.565C11.1928 9.52 11.1634 9.47 11.1735 9.433C11.1806 9.409 11.2061 9.394 11.2447 9.391C11.3535 9.384 11.8132 9.254 12.0044 9.093C12.1468 8.983 12.2607 8.843 12.338 8.682C12.3614 8.629 12.3675 8.594 12.3563 8.577C12.3528 8.57241 12.3481 8.5688 12.3428 8.56652C12.3374 8.56424 12.3316 8.56337 12.3258 8.564C12.283 8.56922 12.2417 8.58318 12.2048 8.605C12.0909 8.662 11.8864 8.797 11.7369 8.895L11.7329 8.898C11.6515 8.952 11.5813 8.998 11.5325 9.028C11.4512 9.075 11.3657 9.116 11.2773 9.148C11.1715 9.19 11.081 9.227 11.0718 9.258C11.0718 9.323 11.0769 9.388 11.0901 9.452V9.456C11.1217 9.656 11.141 9.856 11.144 10.059C11.144 10.422 11.1074 10.964 11.0057 10.964C10.9974 10.9631 10.9895 10.9596 10.9834 10.954C10.9314 10.8974 10.8993 10.8259 10.8918 10.75C10.8751 10.6308 10.8223 10.5183 10.7403 10.429C10.6457 10.34 10.3386 10.019 10.3721 9.663C10.3803 9.578 10.3894 9.51 10.3976 9.455L10.3986 9.447C10.4245 9.33816 10.422 9.22466 10.3915 9.117C10.3463 8.99391 10.3481 8.85888 10.3965 8.737C10.406 8.72079 10.4189 8.70678 10.4343 8.69591C10.4498 8.68504 10.4674 8.67756 10.486 8.674C10.4974 8.67195 10.509 8.67095 10.5206 8.671C10.5641 8.67334 10.6066 8.68422 10.6457 8.703L10.6477 8.704L10.6569 8.708L10.6742 8.715C10.7474 8.745 10.8257 8.76 10.904 8.759C10.9535 8.75856 11.0028 8.75421 11.0515 8.746C11.4278 8.686 11.8102 8.428 12.0044 8.28C12.0858 8.217 12.1854 8.127 12.2902 8.032L12.2922 8.03C12.5363 7.81 12.8109 7.56 12.9878 7.524C13.0336 7.515 13.0773 7.508 13.116 7.503C13.2117 7.49941 13.3054 7.47483 13.3902 7.43105C13.475 7.38728 13.5488 7.32542 13.6062 7.25C13.7871 7.02148 13.9962 6.81591 14.2286 6.638L14.2377 6.63C14.312 6.571 14.376 6.52 14.4147 6.52C14.4212 6.51971 14.4276 6.52146 14.433 6.525C14.4767 6.552 14.0231 7.635 13.3021 8.86C12.5383 10.162 12.1071 10.852 12.0034 10.999C11.9149 11.121 11.8264 11.208 11.7858 11.208ZM8.90564 6.958C8.90157 6.951 9.03378 6.654 9.18836 6.311L9.19548 6.294C9.53617 5.534 10.1067 4.261 10.1494 4.017C10.245 3.508 10.3945 3.123 10.6081 2.839C10.7495 2.64815 10.9366 2.49461 11.1529 2.39202C11.3692 2.28944 11.6079 2.241 11.8478 2.251C11.8915 2.251 11.9373 2.252 11.983 2.255C12.3268 2.278 14.2306 2.91 14.4981 3.433C14.6648 3.76 14.4218 4.493 14.1248 5.033C13.9601 5.333 13.8014 5.533 13.7191 5.543H13.7089C13.595 5.543 13.5879 5.306 13.5807 5.032C13.5736 4.769 13.5655 4.472 13.4587 4.326C13.2675 4.069 12.7366 3.874 12.222 3.874C11.8885 3.874 11.62 3.958 11.4644 4.112L8.90564 6.956V6.958ZM15.09 6.118C15.0127 6.118 14.9659 6.1 14.9527 6.062C14.9252 5.982 15.0523 5.838 15.1906 5.732L15.2954 5.654L15.2974 5.653L15.3178 5.637L15.3208 5.636C15.754 5.308 16.2056 5.004 16.6734 4.725L16.7853 4.657C17.5714 4.178 17.9304 3.96 18.2477 3.603C18.4979 3.323 18.5752 2.899 18.4552 2.469C18.3556 2.13439 18.1675 1.83175 17.9101 1.592C17.578 1.2841 17.1781 1.05583 16.7415 0.925C16.3719 0.850752 15.996 0.810577 15.6188 0.805H15.6137C14.9903 0.777 14.4004 0.752 13.8787 0.39C13.8582 0.371214 13.843 0.347511 13.8346 0.321214C13.8263 0.294918 13.825 0.266932 13.8309 0.24C13.8345 0.227322 13.8422 0.216148 13.8528 0.208198C13.8635 0.200248 13.8765 0.195962 13.8899 0.196C14.1269 0.184 14.373 0.16 14.6343 0.134H14.6425C15.0289 0.088 15.4174 0.063 15.8059 0.056C16.1744 0.0476276 16.5419 0.0979445 16.8941 0.205C16.9836 0.215 18.8264 1.123 19.6044 2.002L19.6176 2.017L19.6786 2.087C20.0976 2.553 20.7973 3.334 20.6834 3.829C20.6367 4.07092 20.5254 4.29628 20.361 4.482C20.1932 4.666 19.94 4.839 19.5393 5.043C19.3481 5.142 18.4918 5.395 15.5018 6.043L15.4205 6.06L15.3625 6.073C15.2735 6.0989 15.1827 6.11401 15.09 6.118Z" fill="#000000"></path></svg>