<svg id="Layer_1" data-name="Layer 1" xmlns="http://www.w3.org/2000/svg" viewBox="0 0 473.25 507.89"><title>Cannes Lions logo - Brandlogos.net</title><path d="M363.69,341.27c-.57,2.83,2.26,0,4.53-2.83s10.75-17,24.34-40.18,21.51-43.58,20.94-44.14-2.83,1.13-5.09,2.83a47.34,47.34,0,0,0-10.19,10.75c-4,4.53-6.79,4.53-11.32,5.09-4.53,1.13-13,10.19-18.11,14.15s-11.32,7.92-17.54,9.06c-6.79,1.13-7.92-1.7-10.75-1.13-3.4.57-3.4,5.09-2.26,8.49s0,4.53-.57,10.19,3.4,11.32,6.79,14.71,2.26,7.92,4.53,9.62,2.83-9.62,2.83-17c0-6.79-1.7-14.15-1.13-15.28s5.66-2.26,8.49-4.53c2.83-1.7,9.06-6.23,12.45-7.92s3.4-.57,2.26,1.7c-.57,1.7-2.83,4.53-6.23,7.92-3.4,2.83-12.45,5.66-14.15,5.66s-1.7,1.7,0,3.4,6.79,1.7,10.75.57c4.53-1.13,4,4.53,3.4,10.19C367.65,328.26,364.25,339,363.69,341.27Zm92.25-192.42C487.63,159,495,186.77,483.67,199.22c-6.23,6.79-13,11.32-29.43,20.94-15.85,10.19-22.07,15.28-27.73,19.24-5.09,4-7.92,9.62,3.4,6.22,1.13-.57,68.48-14.71,77.53-19.24,14.71-7.36,18.68-13,20.94-22.64,2.26-10.19-13-26-19.81-34.52-14.15-16.41-48.67-34-50.37-34-17.54-5.66-38.48-1.13-55.46,0-1.7,0-1.13,2.83,0,3.4C418,149.42,436.69,144.33,455.94,148.85ZM262.38,353.16c3.4,2.83,10.75,15.85,9.62,13.58s2.83-14.15-5.09-28.86-10.75-19.81-14.15-34.52-9.62-27.17.57-36.22a68.8,68.8,0,0,0,22.07-36.22c3.4-14.15,14.71-24.9,27.17-40.18s15.28-17.54,15.28-17.54c-2.83,4-9.06,20.37-11.88,28.86s-16.41,27.17-22.64,37.35-20.37,29.43-21.51,47c-1.13,18.11,13.58,39.62,15.85,47,2.26,7.92-2.83,30,2.26,45.84s20.37,30.56,23.2,32.82c2.83,1.7,2.26,0,1.13-1.13s-2.83-2.83-6.23-10.19-1.7-15.85.57-27.73c2.26-11.32,4-20.94,2.83-32.26s-10.19-31.13-13-43,4.53-23.77,16.41-44.14,13.58-37.35,15.28-50.37c1.7-12.45,8.49-30.56,27.73-38.48,10.75-4.53,41.31,1.7,57.16,11.88,11.32,7.36,17,14.71,18.11,22.64,1.7,9.62-4,15.85-7.36,24.9s-6.23,19.81-2.26,19.24c3.4-.57,44.71-35.09,53.76-44.71,4.53-5.09,10.75-17.54,2.26-29.43-7.36-10.19-61.12-14.15-71.31-28.86-9.06-12.45-32.82-11.88-39.62-7.36-6.23,4.53-20.37,16.41-34.52,20.94-13.58,4.53-27.73,6.79-46.41,16.41s-18.11,20.37-19.81,28.86c-2.26,7.92-3.4,30-18.68,52.63-15.28,23.2-6.23,39.05,1.13,62.82C248.24,339,259,350.33,262.38,353.16ZM394.81,212.8c4,5.66.57,23.2,5.09,23.2,4.53-.57,19.24-30,14.71-39.62-5.09-10.19-40.75-22.07-46.41-22.07-23.77-1.7-31.13,18.11-34,33.39-1.13,6.79-24.34,57.16-23.2,55.46l47.54-53.76C366,200.35,389.16,204.88,394.81,212.8Zm78.1,294.29C441.22,547.28,388,546.15,351.8,560.3c-42.45,17-71.31,47-79.23,54.33-13,13-29.43,9.62-38.48,9.06s-17.54-5.09-20.94-5.66-11.88,0-11.88,0a8,8,0,0,1,3.4-6.23c2.83-2.26,9.62-2.83,20.37-5.09,11.32-2.26,19.81-8.49,24.34-11.32s1.7-4-1.13-3.4-11.89,4-27.17,6.23c-15.85,2.26-20.37,1.13-26.6,5.09s-4.53,14.15-6.23,17c-1.13,2.83-2.26,3.4-4.53,1.7s-2.83-8.49-1.13-14.71c1.7-5.66,10.75-10.19,19.24-12.45s26.6-3.4,46.41-13.58c58.29-31.13,83.76-54.33,135.83-93.95C439,444.84,488.2,421.64,526.68,403c23.77-11.32,93.95-20.37,93.95-20.37s-10.19-6.79-20.37-7.92c-6.23-.57-12.45-1.13-18.68-.57,9.62-5.09,34-24.34,37.92-48.67C624,292.6,581,266,580.44,236.57c-1.13-69-70.74-78.67-67.35-76.4,13,7.92,26,23.77,28.86,32.26,4.53,16.41-9.06,34-29.43,40.75-9.62,3.4-62.82,14.71-69.61,22.07-7.36,7.36,7.36,44.71-1.7,60-9.62,15.28-62.25,41.31-68.48,48.67s-13,5.09-15.28,5.09-.57,2.83,6.23,4c6.22,1.13,17.54-2.26,24.34-6.23,6.22-3.4,15.28,4,15.28,9.06-.57,5.09-6.79,6.23-18.68,13.58C375,395.6,348.41,378.63,346.14,373s5.66-4,10.75-9.62c5.09-6.23-3.4-6.79-6.79-6.23-3.4,1.13-5.09-.57-7.92-1.7s-7.36,0-9.06,2.26c-2.26,2.26,0,4-7.36,5.09-7.36.57-4-7.92-2.26-17.54s7.36-35.09,6.23-38.48-1.13-2.26-4-5.09c-2.83-3.4-2.83-8.49-3.4-18.11,0-9.06.57-26,.57-26S317.28,266,315,280.15c-2.26,14.71,7.36,22.64,7.92,24.9,0,2.26-.57,7.36-4.53,33.39-4.53,25.47,1.13,30.56,6.79,35.09s30.56,17.54,30.56,17.54l-.57,11.32a109.15,109.15,0,0,0-24.33,11.88c-11.89,7.36-15.85,20.94-17,25.47s1.7,4,1.7,4,2.83-2.83,11.88-10.19,29.43-10.75,31.69-11.32c2.26,0,2.83.57-.57,2.83s-11.32,8.49-28.86,21.51S309.36,476,309.36,479.93s2.26.57,2.26.57a34.45,34.45,0,0,1,8.49-11.32c6.22-5.66,19.81-9.06,34.52-11.32,15.28-2.26,17.54-6.23,22.07-13s17.54-19.81,20.37-21.51,3.4-.57,1.7.57-2.26,2.26-10.75,10.75a40.65,40.65,0,0,0-9.62,19.24s4.53-6.23,14.15-13,34-14.71,40.18-16.41,5.66-.57,4.53,0c-1.13,1.13-1.7,1.13-8.49,4.53s-31.13,18.11-63.39,41.88c-32.82,24.34-59.42,52.07-86,71.88-26,19.24-45.84,28.3-56,30s-22.07-4-37.35-5.09c-15.28-.57-25.47,9.62-27.17,11.89s-1.7,4,0,4c1.13,0,4-2.83,6.23-2.83s2.26,1.13,2.26,1.13l-5.66,2.83c-4.53,2.26-10.75,8.49-13.58,18.11s4,23.77,4,23.77,4.53,0,11.32,2.83c6.23,2.83,10.75,4.53,13.58,6.23,3.4,1.7,6.23,2.26,12.45.57s19.81-1.7,28.86-1.13,44.71,9.06,67.35-5.66c71.31-62.82,146.58-57.16,173.18-66.78C513.66,542.75,504.61,468,602,479.37,596.29,470.88,520.45,446.54,472.92,507.1Zm95.64-139.79c21.51-21.51,24.9-44.14,26-53.76,4,20.37-7.36,49.8-17,62.82-7.92.57-15.85,1.13-22.64,2.83C560.07,375.8,563.47,371.84,568.56,367.31ZM557.81,297.7c17,29.43-6.23,62.82-11.32,67.35-4,4-13,8.49-18.68,11.32,10.19-9.62,19.81-21.51,22.64-35.09,2.83-14.15-1.7-28.3-9.06-44.14-1.13-2.83-27.17-41.31-29.43-43.58C515.36,254.69,548.75,278.45,557.81,297.7Zm-80.93-31.13c-1.13-2.26,27.73,52.07,22.07,75.84-9.06,37.92-43,64.52-43,64.52s16.41-31.13,18.68-36.79S493.29,307.88,476.88,266.57Zm-62.25,108.1c10.75-6.22,42.45-55.46,43.58-53.2,1.13,2.83,2.83,16.41-.57,26C453.11,360,414.62,374.66,414.62,374.66ZM163.91,611.8c-1.7,4.53-7.92-2.83-5.66-7.36.57-1.13,7.92-17,23.77-14.15C186,590.86,169.57,597.65,163.91,611.8Z" transform="translate(-147.37 -130.05)"/></svg>