<?xml version="1.0" encoding="UTF-8"?>
<!DOCTYPE svg  PUBLIC '-//W3C//DTD SVG 1.1//EN'  'http://www.w3.org/Graphics/SVG/1.1/DTD/svg11.dtd'>
<svg enable-background="new 0 0 60 70" version="1.1" viewBox="0 0 60 70" xml:space="preserve" xmlns="http://www.w3.org/2000/svg">
	<polyline points="30 70 0 52.499 0 17.499 30 0 60 17.499 60 52.499 30 70" fill="#FDD106"/>
	<path d="m39.443 40.052l2.286 2.352-15.495 11.992-3.031-2.004 4.25-3.124-3.835-3.075-7.171 1.562-3.153-2.207 26.149-5.496m-11.91 5.272l2.514 2.038 5.049-3.708-7.563 1.67z"/>
	<path d="m12.449 34.702l11.623-19.736c3.322 9.25 1.299 15.354 1.299 15.354-2.578 8.573-7.559 12.598-7.559 12.598-1.457 1.227-2.95 0.716-3.479-0.154-0.605-1-0.853-2.504-0.853-2.504-0.152-0.591-1.031-5.558-1.031-5.558m2.577 0.416s0.362 2.378 0.425 2.691c0 0 0.581 3.499 3.397-0.334 0 0 6.084-7.682 3.926-15.161l-7.748 12.804"/>
	<path d="m37.423 20.961l1.629-2.249 9.438 17.592-1.304 2.519-0.558-0.625c0.013 1.041-0.174 1.523-0.174 1.523-0.737 2.627-2.579 2.509-2.579 2.509-3.45-0.05-5.885-5.801-5.885-5.801-2.959-6.189-0.464-9.41-0.464-9.41 1.134-1.376 2.474-1.207 2.474-1.207l-2.577-4.851m6.425 17.617c1.011-0.535 1.105-3.14 0.061-5.766-1.12-2.812-2.501-4.502-3.844-3.862-1.145 0.545-1.267 3.024-0.052 5.593 1.518 3.215 2.831 4.566 3.835 4.035z"/>
	<path d="m34.25 26.02l3.462-1.811c-0.442 3.125-3.605 9.347-3.605 9.347 0.227 0.245 2.122 3.852 2.122 3.852l-3.606 1.708-0.886-1.562c-4.139 6.032-6.522 4.576-6.522 4.576-1.737-0.587-1.401-4.777-1.401-4.777 0.376-3.824 3.473-8.439 3.473-8.439-1.915-3.558 0.701-7.304 0.701-7.304 2.328-3.684 4.533-4.001 4.533-4.001 2.252-0.515 2.161 1.826 2.161 1.826 0.373 3.435-3.583 8.479-3.583 8.479 0.195 0.864 1.484 2.852 1.484 2.852 0.693-1.051 1.667-4.746 1.667-4.746m-5.789 5.392s-2.834 4.107-1.726 5.954c0 0 1.493 1.665 3.56-2.415l-1.834-3.539m3.322-10.669s-0.89-0.26-1.898 1.521c0 0-0.974 1.843 0.017 3.547 0 0 1.777-2.485 2.014-3.616 0 1e-3 0.472-1.218-0.133-1.452"/>
</svg>
