<?xml version="1.0" encoding="utf-8"?>
<!-- Generator: Adobe Illustrator 18.0.0, SVG Export Plug-In . SVG Version: 6.00 Build 0)  -->
<!DOCTYPE svg PUBLIC "-//W3C//DTD SVG 1.1//EN" "http://www.w3.org/Graphics/SVG/1.1/DTD/svg11.dtd">
<svg version="1.1" id="Layer_1" xmlns="http://www.w3.org/2000/svg" xmlns:xlink="http://www.w3.org/1999/xlink" x="0px" y="0px"
	 viewBox="0 0 20 25" enable-background="new 0 -6.1 20 30" xml:space="preserve">
<rect x="1.2" y="10.7" fill="#FFFFFF" width="17.8" height="12.3"/>
<path d="M10,0L0,10v14h20V10L10,0z M6,22H2v-9.1c0-1.1,0.9-2,2-2s2,0.9,2,2V22z M12,22H8v-9.1c0-1.1,0.9-2,2-2c1.1,0,2,0.9,2,2V22z
	 M18,22h-4v-9.1c0-1.1,0.9-2,2-2s2,0.9,2,2V22z M16,8.9c-1.2,0-2.3,0.5-3,1.4c-0.7-0.8-1.8-1.4-3-1.4s-2.3,0.5-3,1.4
	C6.3,9.5,5.2,8.9,4,8.9c0,0-0.1,0-0.1,0l3.4-3.4h5.4L16.1,9C16.1,9,16,8.9,16,8.9z"/>
<path fill="#D59E5D" d="M16,8.9c-1.2,0-2.3,0.5-3,1.4c-0.7-0.8-1.8-1.4-3-1.4s-2.3,0.5-3,1.4C6.3,9.5,5.2,8.9,4,8.9c0,0-0.1,0-0.1,0
	l3.4-3.4h5.4L16.1,9C16.1,9,16,8.9,16,8.9z"/>
</svg>
